<svg width="274" height="248" viewBox="0 0 274 248" version="2.0" xmlns="http://www.w3.org/2000/svg" xmlns:xlink="http://www.w3.org/1999/xlink" xmlns:figma="http://www.figma.com/figma/ns">
<title>Bear</title>
<desc>Created using Figma (9000)</desc>
<g id="Canvas" transform="translate(-1684 -123)" figma:type="canvas">
<g id="Bear" style="mix-blend-mode:normal;" figma:type="group">
<g id="Ellipse 2" style="mix-blend-mode:normal;" figma:type="ellipse">
<use xlink:href="#path0_fill" transform="translate(1808 256)" fill="#DADADA" style="mix-blend-mode:normal;"/>
</g>
<g id="Ellipse" style="mix-blend-mode:normal;" figma:type="vector">
<use xlink:href="#path1_fill" transform="matrix(-0.642788 -0.766044 0.766045 -0.642787 1915.38 199.364)" fill="#7B5B42" style="mix-blend-mode:normal;"/>
<mask id="mask0_outline_out">
<rect id="mask0_outline_inv" fill="white" x="-2" y="-2" width="65" height="60" transform="matrix(-0.642788 -0.766044 0.766045 -0.642787 1915.38 199.364)"/>
<use xlink:href="#path1_fill" fill="black" transform="matrix(-0.642788 -0.766044 0.766045 -0.642787 1915.38 199.364)"/>
</mask>
<g mask="url(#mask0_outline_out)">
<use xlink:href="#path2_stroke_2x" transform="matrix(-0.642788 -0.766044 0.766045 -0.642787 1915.38 199.364)" style="mix-blend-mode:normal;"/>
</g>
</g>
<g id="Ellipse" style="mix-blend-mode:normal;" figma:type="vector">
<use xlink:href="#path3_fill" transform="matrix(-0.642788 -0.766044 0.766044 -0.642788 1911.38 190.364)" fill="#9B815C" style="mix-blend-mode:normal;"/>
<mask id="mask1_outline_out">
<rect id="mask1_outline_inv" fill="white" x="-2" y="-2" width="44" height="41" transform="matrix(-0.642788 -0.766044 0.766044 -0.642788 1911.38 190.364)"/>
<use xlink:href="#path3_fill" fill="black" transform="matrix(-0.642788 -0.766044 0.766044 -0.642788 1911.38 190.364)"/>
</mask>
<g mask="url(#mask1_outline_out)">
<use xlink:href="#path4_stroke_2x" transform="matrix(-0.642788 -0.766044 0.766044 -0.642788 1911.38 190.364)" style="mix-blend-mode:normal;"/>
</g>
</g>
<g id="Ellipse" style="mix-blend-mode:normal;" figma:type="vector">
<use xlink:href="#path5_fill" transform="matrix(-0.642788 0.766044 -0.766044 -0.642788 1768.57 152.401)" fill="#7B5B42" style="mix-blend-mode:normal;"/>
<mask id="mask2_outline_out">
<rect id="mask2_outline_inv" fill="white" x="-2" y="-2" width="65" height="60" transform="matrix(-0.642788 0.766044 -0.766044 -0.642788 1768.57 152.401)"/>
<use xlink:href="#path5_fill" fill="black" transform="matrix(-0.642788 0.766044 -0.766044 -0.642788 1768.57 152.401)"/>
</mask>
<g mask="url(#mask2_outline_out)">
<use xlink:href="#path6_stroke_2x" transform="matrix(-0.642788 0.766044 -0.766044 -0.642788 1768.57 152.401)" style="mix-blend-mode:normal;"/>
</g>
</g>
<g id="Ellipse" style="mix-blend-mode:normal;" figma:type="vector">
<use xlink:href="#path7_fill" transform="matrix(-0.642788 0.766044 -0.766044 -0.642788 1758.57 158.401)" fill="#9B815C" style="mix-blend-mode:normal;"/>
<mask id="mask3_outline_out">
<rect id="mask3_outline_inv" fill="white" x="-2" y="-2" width="44" height="41" transform="matrix(-0.642788 0.766044 -0.766044 -0.642788 1758.57 158.401)"/>
<use xlink:href="#path7_fill" fill="black" transform="matrix(-0.642788 0.766044 -0.766044 -0.642788 1758.57 158.401)"/>
</mask>
<g mask="url(#mask3_outline_out)">
<use xlink:href="#path8_stroke_2x" transform="matrix(-0.642788 0.766044 -0.766044 -0.642788 1758.57 158.401)" style="mix-blend-mode:normal;"/>
</g>
</g>
<g id="Ellipse" style="mix-blend-mode:normal;" figma:type="vector">
<use xlink:href="#path9_fill" transform="translate(1686 143)" fill="#795D47" style="mix-blend-mode:normal;"/>
<mask id="mask4_outline_out">
<rect id="mask4_outline_inv" fill="white" x="-2" y="-2" width="274" height="230" transform="translate(1686 143)"/>
<use xlink:href="#path9_fill" fill="black" transform="translate(1686 143)"/>
</mask>
<g mask="url(#mask4_outline_out)">
<use xlink:href="#path10_stroke_2x" transform="translate(1686 143)" style="mix-blend-mode:normal;"/>
</g>
</g>
<g id="Ellipse" style="mix-blend-mode:normal;" figma:type="vector">
<use xlink:href="#path11_fill" transform="translate(1751 249)" fill="#C5B7AC" style="mix-blend-mode:normal;"/>
<mask id="mask5_outline_out">
<rect id="mask5_outline_inv" fill="white" x="-2" y="-2" width="144" height="117" transform="translate(1751 249)"/>
<use xlink:href="#path11_fill" fill="black" transform="translate(1751 249)"/>
</mask>
<g mask="url(#mask5_outline_out)">
<use xlink:href="#path12_stroke_2x" transform="translate(1751 249)" style="mix-blend-mode:normal;"/>
</g>
</g>
<g id="Group" style="mix-blend-mode:normal;" figma:type="group">
<mask id="mask6_alpha" mask-type="alpha">
<g id="Ellipse" style="mix-blend-mode:normal;" figma:type="vector">
<use xlink:href="#path11_fill" transform="translate(1751 249)" fill="#DADADA" style="mix-blend-mode:normal;"/>
</g>
</mask>
<g id="Ellipse 4" style="mix-blend-mode:normal;" mask="url(#mask6_alpha)" figma:type="ellipse">
<use xlink:href="#path13_fill" transform="translate(1739 336)" fill="#BFA58C" style="mix-blend-mode:normal;"/>
</g>
</g>
<g id="Ellipse 3" style="mix-blend-mode:normal;" figma:type="ellipse">
<use xlink:href="#path0_fill" transform="translate(1806 259)" fill="#4D3D2E" style="mix-blend-mode:normal;"/>
<mask id="mask7_outline_ins">
<use xlink:href="#path0_fill" fill="white" transform="translate(1806 259)"/>
</mask>
<g mask="url(#mask7_outline_ins)">
<use xlink:href="#path14_stroke_2x" transform="translate(1806 259)" style="mix-blend-mode:normal;"/>
</g>
</g>
</g>
</g>
<defs>
<path id="path0_fill" d="
M 30 10
C 30 15.5228 23.2843 20 15 20
C 6.71573 20 0 15.5228 0 10
C 0 4.47715 6.71573 0 15 0
C 23.2843 0 30 4.47715 30 10
Z"/>
<path id="path1_fill" d="
M 60 35.3731
C 60 49.9634 44.8309 55.0746 28.8806 55.0746
C 12.9303 55.0746 -7.45672e-17 49.9634 0 35.3731
C 7.45672e-17 20.7829 13.7687 0 28.8806 0
C 43.9925 0 60 20.7829 60 35.3731
Z"/>
<path id="path2_stroke_2x" d="
M 58 35.3731
C 58 41.7987 54.7389 46.1118 49.4768 48.9325
C 44.1007 51.8143 36.6952 53.0746 28.8806 53.0746
L 28.8806 57.0746
C 37.0163 57.0746 45.1705 55.7793 51.3666 52.4579
C 57.6766 49.0755 62 43.5378 62 35.3731
L 58 35.3731
Z
M 28.8806 53.0746
C 21.0606 53.0746 14.2593 51.8118 9.47963 48.9753
C 4.84431 46.2244 2 41.9438 2 35.3731
L -2 35.3731
C -2 43.3927 1.62083 48.9628 7.43823 52.4152
C 13.1113 55.7819 20.7503 57.0746 28.8806 57.0746
L 28.8806 53.0746
Z
M 2 35.3731
C 2 28.6204 5.22725 20.1911 10.366 13.4249
C 15.5313 6.62383 22.2327 2 28.8806 2
L 28.8806 -2
C 20.4166 -2 12.6777 3.76764 7.1806 11.0056
C 1.65708 18.2784 -2 27.5356 -2 35.3731
L 2 35.3731
Z
M 28.8806 2
C 35.5734 2 42.8455 6.67331 48.5753 13.5009
C 54.2834 20.3027 58 28.7057 58 35.3731
L 62 35.3731
C 62 27.4504 57.7129 18.1669 51.6393 10.9296
C 45.5874 3.71815 37.2997 -2 28.8806 -2
L 28.8806 2
Z"/>
<path id="path3_fill" d="
M 40 23.5821
C 40 33.3089 29.8873 36.7164 19.2537 36.7164
C 8.62018 36.7164 -4.97115e-17 33.3089 0 23.5821
C 4.97115e-17 13.8553 9.1791 0 19.2537 0
C 29.3283 0 40 13.8553 40 23.5821
Z"/>
<path id="path4_stroke_2x" d="
M 38 23.5821
C 38 27.5759 36.0029 30.2472 32.6695 32.0341
C 29.2222 33.882 24.4099 34.7164 19.2537 34.7164
L 19.2537 38.7164
C 24.731 38.7164 30.2919 37.847 34.5593 35.5595
C 38.9407 33.2109 42 29.315 42 23.5821
L 38 23.5821
Z
M 19.2537 34.7164
C 14.0921 34.7164 9.69749 33.8795 6.65998 32.0769
C 3.76679 30.3599 2 27.721 2 23.5821
L -2 23.5821
C -2 29.1699 0.543305 33.0982 4.61859 35.5167
C 8.54956 37.8496 13.7818 38.7164 19.2537 38.7164
L 19.2537 34.7164
Z
M 2 23.5821
C 2 19.2611 4.07986 13.7795 7.4416 9.35313
C 10.8298 4.89192 15.1245 2 19.2537 2
L 19.2537 -2
C 13.3084 -2 7.97617 2.03572 4.25615 6.93385
C 0.509689 11.8668 -2 18.1763 -2 23.5821
L 2 23.5821
Z
M 19.2537 2
C 23.4279 2 28.1066 4.9414 31.8728 9.42917
C 35.6173 13.8911 38 19.3463 38 23.5821
L 42 23.5821
C 42 18.091 39.0468 11.7553 34.9368 6.85781
C 30.8486 1.98624 25.1542 -2 19.2537 -2
L 19.2537 2
Z"/>
<path id="path5_fill" d="
M 60 35.3732
C 60 49.9634 44.8309 55.0747 28.8806 55.0747
C 12.9303 55.0747 -7.45673e-17 49.9634 0 35.3732
C 7.45673e-17 20.7829 13.7687 0 28.8806 0
C 43.9926 0 60 20.7829 60 35.3732
Z"/>
<path id="path6_stroke_2x" d="
M 58 35.3732
C 58 41.7987 54.7389 46.1118 49.4768 48.9325
C 44.1008 51.8143 36.6952 53.0747 28.8806 53.0747
L 28.8806 57.0747
C 37.0163 57.0747 45.1705 55.7793 51.3666 52.458
C 57.6766 49.0755 62 43.5378 62 35.3732
L 58 35.3732
Z
M 28.8806 53.0747
C 21.0606 53.0747 14.2593 51.8118 9.47963 48.9753
C 4.84431 46.2245 2 41.9438 2 35.3732
L -2 35.3732
C -2 43.3927 1.62083 48.9628 7.43824 52.4152
C 13.1113 55.7819 20.7503 57.0747 28.8806 57.0747
L 28.8806 53.0747
Z
M 2 35.3732
C 2 28.6205 5.22725 20.1911 10.366 13.4249
C 15.5313 6.62383 22.2327 2 28.8806 2
L 28.8806 -2
C 20.4166 -2 12.6777 3.76764 7.1806 11.0056
C 1.65708 18.2784 -2 27.5356 -2 35.3732
L 2 35.3732
Z
M 28.8806 2
C 35.5734 2 42.8455 6.67331 48.5753 13.5009
C 54.2834 20.3027 58 28.7057 58 35.3732
L 62 35.3732
C 62 27.4504 57.7129 18.1669 51.6393 10.9296
C 45.5874 3.71815 37.2998 -2 28.8806 -2
L 28.8806 2
Z"/>
<path id="path7_fill" d="
M 40 23.5821
C 40 33.3089 29.8873 36.7164 19.2537 36.7164
C 8.62019 36.7164 -4.97115e-17 33.3089 0 23.5821
C 4.97115e-17 13.8553 9.1791 0 19.2537 0
C 29.3284 0 40 13.8553 40 23.5821
Z"/>
<path id="path8_stroke_2x" d="
M 38 23.5821
C 38 27.576 36.0029 30.2472 32.6695 32.0341
C 29.2222 33.882 24.4099 34.7164 19.2537 34.7164
L 19.2537 38.7164
C 24.7311 38.7164 30.2919 37.847 34.5593 35.5595
C 38.9407 33.2109 42 29.315 42 23.5821
L 38 23.5821
Z
M 19.2537 34.7164
C 14.0921 34.7164 9.69749 33.8795 6.65998 32.0769
C 3.76679 30.3599 2 27.721 2 23.5821
L -2 23.5821
C -2 29.1699 0.543305 33.0982 4.61859 35.5167
C 8.54956 37.8496 13.7818 38.7164 19.2537 38.7164
L 19.2537 34.7164
Z
M 2 23.5821
C 2 19.2611 4.07986 13.7795 7.4416 9.35313
C 10.8298 4.89192 15.1245 2 19.2537 2
L 19.2537 -2
C 13.3084 -2 7.97617 2.03572 4.25615 6.93385
C 0.509689 11.8668 -2 18.1763 -2 23.5821
L 2 23.5821
Z
M 19.2537 2
C 23.4279 2 28.1067 4.9414 31.8728 9.42917
C 35.6173 13.8911 38 19.3463 38 23.5821
L 42 23.5821
C 42 18.091 39.0469 11.7553 34.9368 6.85781
C 30.8486 1.98624 25.1542 -2 19.2537 -2
L 19.2537 2
Z"/>
<path id="path9_fill" d="
M 268.985 138
C 278.985 203.17 201.23 226 129.985 226
C 58.7405 226 -9.01472 203.17 0.985282 138
C 10.9853 72.8304 52.4853 0 129.985 0
C 207.485 0 258.985 72.8304 268.985 138
Z"/>
<path id="path10_stroke_2x" d="
M 267.008 138.303
C 269.442 154.161 266.531 167.321 259.803 178.191
C 253.005 189.228 242.407 197.837 229.042 204.658
C 202.346 218.308 165.456 224 129.985 224
L 129.985 228
C 165.759 228 203.369 222.277 230.863 208.219
C 244.592 201.187 256.01 191.868 263.205 180.296
C 270.47 168.557 273.529 154.424 270.962 137.697
L 267.008 138.303
Z
M 129.985 224
C 94.5086 224 60.1598 218.305 36.0001 204.696
C 23.8963 197.893 14.5431 189.322 8.66677 178.299
C 2.73602 167.287 0.485192 154.273 2.96214 138.303
L -0.99158 137.697
C -3.51463 154.311 -1.04605 168.59 5.14122 180.188
C 11.3829 191.774 21.5463 201.13 34.0369 208.181
C 59.066 222.28 94.2172 228 129.985 228
L 129.985 224
Z
M 2.96214 138.303
C 7.92075 105.919 20.5973 71.9065 41.7279 45.819
C 62.7342 19.8439 91.9471 2 129.985 2
L 129.985 -2
C 90.5235 -2 60.2364 16.5713 38.6177 43.3038
C 17.1233 69.9239 4.04981 104.911 -0.99158 137.697
L 2.96214 138.303
Z
M 129.985 2
C 168.056 2 199.797 19.8757 223.314 45.9023
C 246.934 72.0062 262.066 105.979 267.008 138.303
L 270.962 137.697
C 265.904 104.851 250.286 69.8242 226.282 43.2205
C 202.174 16.5395 169.415 -2 129.985 -2
L 129.985 2
Z"/>
<path id="path11_fill" d="
M 139.547 69
C 144.735 101.585 104.396 113 67.4352 113
C 30.4741 113 -4.67675 101.585 0.511155 69
C 5.69906 36.4152 37.2289 0 67.4352 0
C 97.6415 0 134.359 36.4152 139.547 69
Z"/>
<path id="path12_stroke_2x" d="
M 137.572 69.3145
C 138.797 77.0074 137.33 83.3284 133.983 88.541
C 130.557 93.9283 125.26 98.0631 118.413 101.425
C 104.747 108.16 85.7716 111 67.4352 111
L 67.4352 115
C 86.0598 115 105.734 112.133 120.181 105.013
C 127.39 101.449 133.516 96.6199 137.349 90.7024
C 141.261 84.6102 142.891 77.285 141.522 68.6855
L 137.572 69.3145
Z
M 67.4352 111
C 49.0929 111 31.4544 108.157 19.1215 101.462
C 12.935 98.1177 8.28419 94.0214 5.32963 88.6497
C 2.42998 83.4355 1.25077 77.0746 2.48628 69.3145
L -1.46397 68.6855
C -2.82241 77.2178 -1.55324 84.5031 1.83382 90.5937
C 5.16598 96.5268 10.6402 101.394 17.2131 104.977
C 30.3988 112.135 48.8164 115 67.4352 115
L 67.4352 111
Z
M 2.48628 69.3145
C 5.00711 53.4814 13.9689 36.5843 26.0529 23.6458
C 38.1646 10.6778 53.107 2 67.4352 2
L 67.4352 -2
C 51.557 -2 35.6314 7.5298 23.1296 20.9156
C 10.6002 34.3309 1.20311 51.9338 -1.46397 68.6855
L 2.48628 69.3145
Z
M 67.4352 2
C 81.8054 2 98.0626 10.7193 111.482 23.7173
C 124.875 36.6904 135.065 53.5695 137.572 69.3145
L 141.522 68.6855
C 138.841 51.8457 128.079 34.2247 114.265 20.8441
C 100.476 7.48827 83.2713 -2 67.4352 -2
L 67.4352 2
Z"/>
<path id="path13_fill" d="
M 165 19.5
C 165 30.2696 128.063 39 82.5 39
C 36.9365 39 0 30.2696 0 19.5
C 0 8.73045 36.9365 0 82.5 0
C 128.063 0 165 8.73045 165 19.5
Z"/>
<path id="path14_stroke_2x" d="
M 28 10
C 28 11.8847 26.8541 13.8357 24.4972 15.407
C 22.1543 16.9689 18.8024 18 15 18
L 15 22
C 19.4819 22 23.63 20.7925 26.716 18.7352
C 29.788 16.6871 32 13.6382 32 10
L 28 10
Z
M 15 18
C 11.1976 18 7.84572 16.9689 5.5028 15.407
C 3.1459 13.8357 2 11.8847 2 10
L -2 10
C -2 13.6382 0.211965 16.6871 3.284 18.7352
C 6.37001 20.7925 10.5181 22 15 22
L 15 18
Z
M 2 10
C 2 8.11534 3.1459 6.1643 5.5028 4.59303
C 7.84572 3.03109 11.1976 2 15 2
L 15 -2
C 10.5181 -2 6.37001 -0.792511 3.284 1.26483
C 0.211965 3.31285 -2 6.36181 -2 10
L 2 10
Z
M 15 2
C 18.8024 2 22.1543 3.03109 24.4972 4.59303
C 26.8541 6.1643 28 8.11534 28 10
L 32 10
C 32 6.36181 29.788 3.31285 26.716 1.26483
C 23.63 -0.792511 19.4819 -2 15 -2
L 15 2
Z"/>
</defs>
</svg>
